{
  "accessors": [
    {
      "bufferView": 2,
      "componentType": 5126,
      "count": 960,
      "max": [
        1.4357428550720215,
        11.871122360229492,
        1.4357428550720215
      ],
      "min": [
        -1.4357428550720215,
        -1.0,
        -1.4357428550720215
      ],
      "type": "VEC3"
    },
    {
      "bufferView": 2,
      "byteOffset": 11520,
      "componentType": 5126,
      "count": 960,
      "max": [
        0.9945122003555298,
        0.9313760995864868,
        0.9945122003555298
      ],
      "min": [
        -0.9945120811462402,
        -1.0,
        -0.9945122003555298
      ],
      "type": "VEC3"
    },
    {
      "bufferView": 1,
      "componentType": 5126,
      "count": 960,
      "max": [
        1.0,
        1.0
      ],
      "min": [
        0.0,
        0.01000000536441803
      ],
      "type": "VEC2"
    },
    {
      "bufferView": 0,
      "componentType": 5125,
      "count": 1524,
      "type": "SCALAR"
    },
    {
      "bufferView": 2,
      "byteOffset": 23040,
      "componentType": 5126,
      "count": 192,
      "max": [
        2.029930353164673,
        0.9269946813583374,
        2.029930353164673
      ],
      "min": [
        -2.029930353164673,
        -0.9269943237304688,
        -2.029930353164673
      ],
      "type": "VEC3"
    },
    {
      "bufferView": 2,
      "byteOffset": 25344,
      "componentType": 5126,
      "count": 192,
      "max": [
        0.7889637351036072,
        1.0,
        0.7889636754989624
      ],
      "min": [
        -0.7889637351036072,
        -1.0,
        -0.7889636754989624
      ],
      "type": "VEC3"
    },
    {
      "bufferView": 1,
      "byteOffset": 7680,
      "componentType": 5126,
      "count": 192,
      "max": [
        1.0,
        1.0
      ],
      "min": [
        0.0,
        0.01000000536441803
      ],
      "type": "VEC2"
    },
    {
      "bufferView": 0,
      "byteOffset": 6096,
      "componentType": 5125,
      "count": 372,
      "type": "SCALAR"
    },
    {
      "bufferView": 2,
      "byteOffset": 27648,
      "componentType": 5126,
      "count": 192,
      "max": [
        1.8361684083938599,
        0.932303786277771,
        1.8361684083938599
      ],
      "min": [
        -1.8361684083938599,
        -0.9269943237304688,
        -1.8361684083938599
      ],
      "type": "VEC3"
    },
    {
      "bufferView": 2,
      "byteOffset": 29952,
      "componentType": 5126,
      "count": 192,
      "max": [
        0.8287521600723267,
        0.9999995827674866,
        0.8304491639137268
      ],
      "min": [
        -0.8287521600723267,
        -1.0,
        -0.8287522196769714
      ],
      "type": "VEC3"
    },
    {
      "bufferView": 1,
      "byteOffset": 9216,
      "componentType": 5126,
      "count": 192,
      "max": [
        1.0,
        1.0
      ],
      "min": [
        0.0,
        0.01000000536441803
      ],
      "type": "VEC2"
    },
    {
      "bufferView": 0,
      "byteOffset": 7584,
      "componentType": 5125,
      "count": 372,
      "type": "SCALAR"
    },
    {
      "bufferView": 2,
      "byteOffset": 32256,
      "componentType": 5126,
      "count": 192,
      "max": [
        1.2913188934326172,
        0.25960466265678406,
        1.2913188934326172
      ],
      "min": [
        -1.2913188934326172,
        -1.209728479385376,
        -1.2913188934326172
      ],
      "type": "VEC3"
    },
    {
      "bufferView": 2,
      "byteOffset": 34560,
      "componentType": 5126,
      "count": 192,
      "max": [
        0.900726318359375,
        1.0,
        0.9007263779640198
      ],
      "min": [
        -0.900726318359375,
        -1.0,
        -0.900726318359375
      ],
      "type": "VEC3"
    },
    {
      "bufferView": 1,
      "byteOffset": 10752,
      "componentType": 5126,
      "count": 192,
      "max": [
        1.0,
        1.0
      ],
      "min": [
        0.0,
        0.01000000536441803
      ],
      "type": "VEC2"
    },
    {
      "bufferView": 0,
      "byteOffset": 9072,
      "componentType": 5125,
      "count": 372,
      "type": "SCALAR"
    },
    {
      "bufferView": 2,
      "byteOffset": 36864,
      "componentType": 5126,
      "count": 192,
      "max": [
        0.7874040603637695,
        0.9269958734512329,
        0.7874040603637695
      ],
      "min": [
        -0.7874040603637695,
        -0.9269943237304688,
        -0.7874040603637695
      ],
      "type": "VEC3"
    },
    {
      "bufferView": 2,
      "byteOffset": 39168,
      "componentType": 5126,
      "count": 192,
      "max": [
        0.9173274636268616,
        1.0,
        0.9173275232315063
      ],
      "min": [
        -0.9173274636268616,
        -1.0,
        -0.9173275232315063
      ],
      "type": "VEC3"
    },
    {
      "bufferView": 1,
      "byteOffset": 12288,
      "componentType": 5126,
      "count": 192,
      "max": [
        1.0,
        1.0
      ],
      "min": [
        0.0,
        0.01000000536441803
      ],
      "type": "VEC2"
    },
    {
      "bufferView": 0,
      "byteOffset": 10560,
      "componentType": 5125,
      "count": 372,
      "type": "SCALAR"
    }
  ],
  "asset": {
    "extras": {
      "author": "Coder_uz (https://sketchfab.com/Coder_uz)",
      "license": "CC-BY-4.0 (http://creativecommons.org/licenses/by/4.0/)",
      "source": "https://sketchfab.com/3d-models/juniper-low-poly-model-a2a70d8dfe3d4371ba17f5d05d0582c2",
      "title": "Juniper low poly model"
    },
    "generator": "Sketchfab-14.77.0",
    "version": "2.0"
  },
  "bufferViews": [
    {
      "buffer": 0,
      "byteLength": 12048,
      "name": "floatBufferViews",
      "target": 34963
    },
    {
      "buffer": 0,
      "byteLength": 13824,
      "byteOffset": 12048,
      "byteStride": 8,
      "name": "floatBufferViews",
      "target": 34962
    },
    {
      "buffer": 0,
      "byteLength": 41472,
      "byteOffset": 25872,
      "byteStride": 12,
      "name": "floatBufferViews",
      "target": 34962
    }
  ],
  "buffers": [
    {
      "byteLength": 67344,
      "uri": "scene.bin"
    }
  ],
  "materials": [
    {
      "doubleSided": true,
      "name": "Material.001",
      "pbrMetallicRoughness": {
        "baseColorFactor": [
          0.0898409,
          0.0304546,
          0.0,
          1.0
        ],
        "roughnessFactor": 0.9
      }
    },
    {
      "doubleSided": true,
      "name": "Material.002",
      "pbrMetallicRoughness": {
        "baseColorFactor": [
          0.00147771,
          0.192435,
          0.0,
          1.0
        ],
        "metallicFactor": 0.0,
        "roughnessFactor": 0.9
      }
    },
    {
      "doubleSided": true,
      "name": "Material.003",
      "pbrMetallicRoughness": {
        "baseColorFactor": [
          0.001,
          0.192,
          0.0,
          1.0
        ],
        "metallicFactor": 0.0,
        "roughnessFactor": 0.5
      }
    },
    {
      "doubleSided": true,
      "name": "Material.004",
      "pbrMetallicRoughness": {
        "baseColorFactor": [
          0.001,
          0.192,
          0.0,
          1.0
        ],
        "metallicFactor": 0.0,
        "roughnessFactor": 0.5
      }
    },
    {
      "doubleSided": true,
      "name": "Material.005",
      "pbrMetallicRoughness": {
        "baseColorFactor": [
          0.001,
          0.192,
          0.0,
          1.0
        ],
        "metallicFactor": 0.0,
        "roughnessFactor": 0.5
      }
    }
  ],
  "meshes": [
    {
      "name": "Object_0",
      "primitives": [
        {
          "attributes": {
            "NORMAL": 1,
            "POSITION": 0,
            "TEXCOORD_0": 2
          },
          "indices": 3,
          "material": 0,
          "mode": 4
        }
      ]
    },
    {
      "name": "Object_1",
      "primitives": [
        {
          "attributes": {
            "NORMAL": 5,
            "POSITION": 4,
            "TEXCOORD_0": 6
          },
          "indices": 7,
          "material": 1,
          "mode": 4
        }
      ]
    },
    {
      "name": "Object_2",
      "primitives": [
        {
          "attributes": {
            "NORMAL": 9,
            "POSITION": 8,
            "TEXCOORD_0": 10
          },
          "indices": 11,
          "material": 2,
          "mode": 4
        }
      ]
    },
    {
      "name": "Object_3",
      "primitives": [
        {
          "attributes": {
            "NORMAL": 13,
            "POSITION": 12,
            "TEXCOORD_0": 14
          },
          "indices": 15,
          "material": 3,
          "mode": 4
        }
      ]
    },
    {
      "name": "Object_4",
      "primitives": [
        {
          "attributes": {
            "NORMAL": 17,
            "POSITION": 16,
            "TEXCOORD_0": 18
          },
          "indices": 19,
          "material": 4,
          "mode": 4
        }
      ]
    }
  ],
  "nodes": [
    {
      "children": [
        1
      ],
      "matrix": [
        1.0,
        0.0,
        0.0,
        0.0,
        0.0,
        2.220446049250313e-16,
        -1.0,
        0.0,
        0.0,
        1.0,
        2.220446049250313e-16,
        0.0,
        0.0,
        0.0,
        0.0,
        1.0
      ],
      "name": "Sketchfab_model"
    },
    {
      "children": [
        2
      ],
      "name": "root"
    },
    {
      "children": [
        3,
        5,
        7,
        9,
        11
      ],
      "matrix": [
        1.0,
        0.0,
        0.0,
        0.0,
        0.0,
        2.220446049250313e-16,
        1.0,
        0.0,
        0.0,
        -1.0,
        2.220446049250313e-16,
        0.0,
        0.0,
        0.0,
        0.0,
        1.0
      ],
      "name": "GLTF_SceneRootNode"
    },
    {
      "children": [
        4
      ],
      "name": "Cylinder_0"
    },
    {
      "mesh": 0,
      "name": "Object_4"
    },
    {
      "children": [
        6
      ],
      "matrix": [
        2.061551809310913,
        0.0,
        0.0,
        0.0,
        0.0,
        2.061551809310913,
        0.0,
        0.0,
        0.0,
        0.0,
        2.061551809310913,
        0.0,
        0.0,
        2.813509464263916,
        0.0,
        1.0
      ],
      "name": "Cylinder.001_1"
    },
    {
      "mesh": 1,
      "name": "Object_6"
    },
    {
      "children": [
        8
      ],
      "matrix": [
        1.7999999523162842,
        0.0,
        0.0,
        0.0,
        0.0,
        1.7999999523162842,
        0.0,
        0.0,
        0.0,
        0.0,
        1.7999999523162842,
        0.0,
        0.0,
        5.08854341506958,
        0.0,
        1.0
      ],
      "name": "Cylinder.002_2"
    },
    {
      "mesh": 2,
      "name": "Object_8"
    },
    {
      "children": [
        10
      ],
      "matrix": [
        2.061551809310913,
        0.0,
        0.0,
        0.0,
        0.0,
        2.061551809310913,
        0.0,
        0.0,
        0.0,
        0.0,
        2.061551809310913,
        0.0,
        0.0,
        7.921267509460449,
        0.0,
        1.0
      ],
      "name": "Cylinder.003_3"
    },
    {
      "mesh": 3,
      "name": "Object_10"
    },
    {
      "children": [
        12
      ],
      "matrix": [
        2.4000000953674316,
        0.0,
        0.0,
        0.0,
        0.0,
        2.0,
        0.0,
        0.0,
        0.0,
        0.0,
        2.4000000953674316,
        0.0,
        0.0,
        10.149794578552246,
        0.0,
        1.0
      ],
      "name": "Cylinder.004_4"
    },
    {
      "mesh": 4,
      "name": "Object_12"
    }
  ],
  "scene": 0,
  "scenes": [
    {
      "name": "Sketchfab_Scene",
      "nodes": [
        0
      ]
    }
  ]
}
